<?xml version="1.0" encoding="UTF-8" standalone="no"?>
<!DOCTYPE svg PUBLIC "-//W3C//DTD SVG 1.1//EN"
 "http://www.w3.org/Graphics/SVG/1.1/DTD/svg11.dtd">
<!-- Generated by graphviz version 2.40.1 (20161225.0304)
 -->
<!-- Title: %3 Pages: 1 -->
<svg width="693pt" height="227pt"
 viewBox="0.00 0.00 692.79 227.00" xmlns="http://www.w3.org/2000/svg" xmlns:xlink="http://www.w3.org/1999/xlink">
<g id="graph0" class="graph" transform="scale(1 1) rotate(0) translate(4 223)">
<title>%3</title>
<polygon fill="#ffffff" stroke="transparent" points="-4,4 -4,-223 688.7878,-223 688.7878,4 -4,4"/>
<g id="clust1" class="cluster">
<title>cluster31</title>
<path fill="none" stroke="#000000" d="M42.7878,-8C42.7878,-8 432.7878,-8 432.7878,-8 438.7878,-8 444.7878,-14 444.7878,-20 444.7878,-20 444.7878,-143 444.7878,-143 444.7878,-149 438.7878,-155 432.7878,-155 432.7878,-155 42.7878,-155 42.7878,-155 36.7878,-155 30.7878,-149 30.7878,-143 30.7878,-143 30.7878,-20 30.7878,-20 30.7878,-14 36.7878,-8 42.7878,-8"/>
<text text-anchor="middle" x="429.7878" y="-15.8" font-family="Times,serif" font-size="14.00" fill="#000000">31</text>
</g>
<!-- variance_of_distance -->
<g id="node1" class="node">
<title>variance_of_distance</title>
<ellipse fill="none" stroke="#000000" cx="137.7878" cy="-201" rx="137.5759" ry="18"/>
<text text-anchor="middle" x="137.7878" y="-197.3" font-family="Times,serif" font-size="14.00" fill="#000000">variance_of_distance ~ HalfNormal</text>
</g>
<!-- p_good_distance -->
<g id="node4" class="node">
<title>p_good_distance</title>
<polygon fill="none" stroke="#000000" points="236.2878,-147 39.2878,-147 39.2878,-111 236.2878,-111 236.2878,-147"/>
<text text-anchor="middle" x="137.7878" y="-125.3" font-family="Times,serif" font-size="14.00" fill="#000000">p_good_distance ~ Deterministic</text>
</g>
<!-- variance_of_distance&#45;&gt;p_good_distance -->
<g id="edge3" class="edge">
<title>variance_of_distance&#45;&gt;p_good_distance</title>
<path fill="none" stroke="#000000" d="M137.7878,-182.8314C137.7878,-175.131 137.7878,-165.9743 137.7878,-157.4166"/>
<polygon fill="#000000" stroke="#000000" points="141.2879,-157.4132 137.7878,-147.4133 134.2879,-157.4133 141.2879,-157.4132"/>
</g>
<!-- angle_of_shot_radians -->
<g id="node2" class="node">
<title>angle_of_shot_radians</title>
<ellipse fill="none" stroke="#000000" cx="502.7878" cy="-201" rx="142.9746" ry="18"/>
<text text-anchor="middle" x="502.7878" y="-197.3" font-family="Times,serif" font-size="14.00" fill="#000000">angle_of_shot_radians ~ HalfNormal</text>
</g>
<!-- angle_of_shot_degrees -->
<g id="node3" class="node">
<title>angle_of_shot_degrees</title>
<polygon fill="none" stroke="#000000" points="684.7878,-147 454.7878,-147 454.7878,-111 684.7878,-111 684.7878,-147"/>
<text text-anchor="middle" x="569.7878" y="-125.3" font-family="Times,serif" font-size="14.00" fill="#000000">angle_of_shot_degrees ~ Deterministic</text>
</g>
<!-- angle_of_shot_radians&#45;&gt;angle_of_shot_degrees -->
<g id="edge1" class="edge">
<title>angle_of_shot_radians&#45;&gt;angle_of_shot_degrees</title>
<path fill="none" stroke="#000000" d="M519.6947,-182.8314C527.569,-174.3694 537.0798,-164.1489 545.6891,-154.8971"/>
<polygon fill="#000000" stroke="#000000" points="548.4031,-157.1183 552.6532,-147.4133 543.2786,-152.3497 548.4031,-157.1183"/>
</g>
<!-- p_good_angle -->
<g id="node5" class="node">
<title>p_good_angle</title>
<polygon fill="none" stroke="#000000" points="436.7878,-147 254.7878,-147 254.7878,-111 436.7878,-111 436.7878,-147"/>
<text text-anchor="middle" x="345.7878" y="-125.3" font-family="Times,serif" font-size="14.00" fill="#000000">p_good_angle ~ Deterministic</text>
</g>
<!-- angle_of_shot_radians&#45;&gt;p_good_angle -->
<g id="edge2" class="edge">
<title>angle_of_shot_radians&#45;&gt;p_good_angle</title>
<path fill="none" stroke="#000000" d="M464.7825,-183.5708C443.5658,-173.8409 416.9145,-161.6186 394.2154,-151.2088"/>
<polygon fill="#000000" stroke="#000000" points="395.6314,-148.0078 385.0827,-147.0206 392.7134,-154.3706 395.6314,-148.0078"/>
</g>
<!-- p_success -->
<g id="node6" class="node">
<title>p_success</title>
<ellipse fill="#d3d3d3" stroke="#000000" cx="241.7878" cy="-57" rx="89.0842" ry="18"/>
<text text-anchor="middle" x="241.7878" y="-53.3" font-family="Times,serif" font-size="14.00" fill="#000000">p_success ~ Binomial</text>
</g>
<!-- p_good_distance&#45;&gt;p_success -->
<g id="edge4" class="edge">
<title>p_good_distance&#45;&gt;p_success</title>
<path fill="none" stroke="#000000" d="M164.0314,-110.8314C177.3863,-101.5857 193.7735,-90.2407 208.0548,-80.3536"/>
<polygon fill="#000000" stroke="#000000" points="210.3992,-82.9875 216.6289,-74.4177 206.4147,-77.2322 210.3992,-82.9875"/>
</g>
<!-- p_good_angle&#45;&gt;p_success -->
<g id="edge5" class="edge">
<title>p_good_angle&#45;&gt;p_success</title>
<path fill="none" stroke="#000000" d="M319.5442,-110.8314C306.1893,-101.5857 289.8021,-90.2407 275.5208,-80.3536"/>
<polygon fill="#000000" stroke="#000000" points="277.1609,-77.2322 266.9467,-74.4177 273.1764,-82.9875 277.1609,-77.2322"/>
</g>
</g>
</svg>
