<?xml version="1.0" encoding="UTF-8" standalone="no"?>
<!DOCTYPE svg PUBLIC "-//W3C//DTD SVG 1.1//EN"
 "http://www.w3.org/Graphics/SVG/1.1/DTD/svg11.dtd">
<!-- Generated by graphviz version 2.40.1 (20161225.0304)
 -->
<!-- Title: %3 Pages: 1 -->
<svg width="270pt" height="155pt"
 viewBox="0.00 0.00 270.19 155.00" xmlns="http://www.w3.org/2000/svg" xmlns:xlink="http://www.w3.org/1999/xlink">
<g id="graph0" class="graph" transform="scale(1 1) rotate(0) translate(4 151)">
<title>%3</title>
<polygon fill="#ffffff" stroke="transparent" points="-4,4 -4,-151 266.1892,-151 266.1892,4 -4,4"/>
<g id="clust1" class="cluster">
<title>cluster19</title>
<path fill="none" stroke="#000000" d="M77.0946,-8C77.0946,-8 185.0946,-8 185.0946,-8 191.0946,-8 197.0946,-14 197.0946,-20 197.0946,-20 197.0946,-71 197.0946,-71 197.0946,-77 191.0946,-83 185.0946,-83 185.0946,-83 77.0946,-83 77.0946,-83 71.0946,-83 65.0946,-77 65.0946,-71 65.0946,-71 65.0946,-20 65.0946,-20 65.0946,-14 71.0946,-8 77.0946,-8"/>
<text text-anchor="middle" x="182.0946" y="-15.8" font-family="Times,serif" font-size="14.00" fill="#000000">19</text>
</g>
<!-- b_0 -->
<g id="node1" class="node">
<title>b_0</title>
<ellipse fill="none" stroke="#000000" cx="61.0946" cy="-129" rx="61.1893" ry="18"/>
<text text-anchor="middle" x="61.0946" y="-125.3" font-family="Times,serif" font-size="14.00" fill="#000000">b_0 ~ Normal</text>
</g>
<!-- y -->
<g id="node3" class="node">
<title>y</title>
<ellipse fill="#d3d3d3" stroke="#000000" cx="131.0946" cy="-57" rx="57.6901" ry="18"/>
<text text-anchor="middle" x="131.0946" y="-53.3" font-family="Times,serif" font-size="14.00" fill="#000000">y ~ Binomial</text>
</g>
<!-- b_0&#45;&gt;y -->
<g id="edge1" class="edge">
<title>b_0&#45;&gt;y</title>
<path fill="none" stroke="#000000" d="M78.0396,-111.5708C86.8098,-102.55 97.6628,-91.387 107.2634,-81.5121"/>
<polygon fill="#000000" stroke="#000000" points="109.8443,-83.8784 114.3056,-74.2687 104.8253,-78.9989 109.8443,-83.8784"/>
</g>
<!-- b_1 -->
<g id="node2" class="node">
<title>b_1</title>
<ellipse fill="none" stroke="#000000" cx="201.0946" cy="-129" rx="61.1893" ry="18"/>
<text text-anchor="middle" x="201.0946" y="-125.3" font-family="Times,serif" font-size="14.00" fill="#000000">b_1 ~ Normal</text>
</g>
<!-- b_1&#45;&gt;y -->
<g id="edge2" class="edge">
<title>b_1&#45;&gt;y</title>
<path fill="none" stroke="#000000" d="M184.1495,-111.5708C175.3793,-102.55 164.5263,-91.387 154.9258,-81.5121"/>
<polygon fill="#000000" stroke="#000000" points="157.3639,-78.9989 147.8836,-74.2687 152.3449,-83.8784 157.3639,-78.9989"/>
</g>
</g>
</svg>
