<?xml version="1.0" encoding="UTF-8" standalone="no"?>
<!DOCTYPE svg PUBLIC "-//W3C//DTD SVG 1.1//EN"
 "http://www.w3.org/Graphics/SVG/1.1/DTD/svg11.dtd">
<!-- Generated by graphviz version 2.40.1 (20161225.0304)
 -->
<!-- Title: %3 Pages: 1 -->
<svg width="460pt" height="227pt"
 viewBox="0.00 0.00 460.00 227.00" xmlns="http://www.w3.org/2000/svg" xmlns:xlink="http://www.w3.org/1999/xlink">
<g id="graph0" class="graph" transform="scale(1 1) rotate(0) translate(4 223)">
<title>%3</title>
<polygon fill="#ffffff" stroke="transparent" points="-4,4 -4,-223 456,-223 456,4 -4,4"/>
<g id="clust1" class="cluster">
<title>cluster19</title>
<path fill="none" stroke="#000000" d="M252,-8C252,-8 432,-8 432,-8 438,-8 444,-14 444,-20 444,-20 444,-143 444,-143 444,-149 438,-155 432,-155 432,-155 252,-155 252,-155 246,-155 240,-149 240,-143 240,-143 240,-20 240,-20 240,-14 246,-8 252,-8"/>
<text text-anchor="middle" x="429" y="-15.8" font-family="Times,serif" font-size="14.00" fill="#000000">19</text>
</g>
<!-- angle_of_shot_radians -->
<g id="node1" class="node">
<title>angle_of_shot_radians</title>
<ellipse fill="none" stroke="#000000" cx="228" cy="-201" rx="142.9746" ry="18"/>
<text text-anchor="middle" x="228" y="-197.3" font-family="Times,serif" font-size="14.00" fill="#000000">angle_of_shot_radians ~ HalfNormal</text>
</g>
<!-- angle_of_shot_degrees -->
<g id="node2" class="node">
<title>angle_of_shot_degrees</title>
<polygon fill="none" stroke="#000000" points="230,-147 0,-147 0,-111 230,-111 230,-147"/>
<text text-anchor="middle" x="115" y="-125.3" font-family="Times,serif" font-size="14.00" fill="#000000">angle_of_shot_degrees ~ Deterministic</text>
</g>
<!-- angle_of_shot_radians&#45;&gt;angle_of_shot_degrees -->
<g id="edge1" class="edge">
<title>angle_of_shot_radians&#45;&gt;angle_of_shot_degrees</title>
<path fill="none" stroke="#000000" d="M200.0674,-183.2022C185.5092,-173.9262 167.5172,-162.4623 151.8346,-152.4698"/>
<polygon fill="#000000" stroke="#000000" points="153.7105,-149.515 143.3961,-147.0931 149.9489,-155.4185 153.7105,-149.515"/>
</g>
<!-- p_ball_goes_in -->
<g id="node3" class="node">
<title>p_ball_goes_in</title>
<polygon fill="none" stroke="#000000" points="436,-147 248,-147 248,-111 436,-111 436,-147"/>
<text text-anchor="middle" x="342" y="-125.3" font-family="Times,serif" font-size="14.00" fill="#000000">p_ball_goes_in ~ Deterministic</text>
</g>
<!-- angle_of_shot_radians&#45;&gt;p_ball_goes_in -->
<g id="edge2" class="edge">
<title>angle_of_shot_radians&#45;&gt;p_ball_goes_in</title>
<path fill="none" stroke="#000000" d="M256.1798,-183.2022C270.8668,-173.9262 289.0181,-162.4623 304.8394,-152.4698"/>
<polygon fill="#000000" stroke="#000000" points="306.7666,-155.3923 313.3526,-147.0931 303.0287,-149.4739 306.7666,-155.3923"/>
</g>
<!-- p_success -->
<g id="node4" class="node">
<title>p_success</title>
<ellipse fill="#d3d3d3" stroke="#000000" cx="342" cy="-57" rx="89.0842" ry="18"/>
<text text-anchor="middle" x="342" y="-53.3" font-family="Times,serif" font-size="14.00" fill="#000000">p_success ~ Binomial</text>
</g>
<!-- p_ball_goes_in&#45;&gt;p_success -->
<g id="edge3" class="edge">
<title>p_ball_goes_in&#45;&gt;p_success</title>
<path fill="none" stroke="#000000" d="M342,-110.8314C342,-103.131 342,-93.9743 342,-85.4166"/>
<polygon fill="#000000" stroke="#000000" points="345.5001,-85.4132 342,-75.4133 338.5001,-85.4133 345.5001,-85.4132"/>
</g>
</g>
</svg>
